<?xml version="1.0" encoding="UTF-8"?>
<svg id="Layer_2" data-name="Layer 2" xmlns="http://www.w3.org/2000/svg" viewBox="0 0 41.57 22.08">
  <defs>
    <style>
      .cls-1, .cls-2 {
        fill: #168a7c;
      }

      .cls-1, .cls-3 {
        stroke-width: 0px;
      }

      .cls-2, .cls-4 {
        stroke: #168a7c;
        stroke-linecap: round;
        stroke-linejoin: round;
        stroke-width: .48px;
      }

      .cls-4, .cls-3 {
        fill: #fff;
      }
    </style>
  </defs>
  <g id="Layer_1-2" data-name="Layer 1">
    <g>
      <g>
        <polygon class="cls-2" points="41.33 21.73 38.72 21.73 31.3 14.34 30.72 18.38 27.68 15.3 31.2 11.8 41.33 21.73"/>
        <polygon class="cls-4" points="38.72 21.73 34.04 21.75 30.72 18.38 31.3 14.34 38.72 21.73"/>
        <polygon class="cls-2" points="19.52 21.79 17.47 21.79 10.27 14.4 9.62 17.21 7.07 17.67 6.75 19.77 7.42 21.14 6.09 21.81 .24 21.83 10.08 11.66 13.58 15.44 18.05 20.23 19.52 21.79"/>
        <polygon class="cls-4" points="17.47 21.79 17.45 21.79 6.09 21.81 7.42 21.14 6.75 19.77 7.07 17.67 9.62 17.21 10.27 14.4 17.47 21.79"/>
        <polygon class="cls-4" points="31.84 21.75 19.52 21.79 18.05 20.23 20.11 16.92 19.48 15.49 20.73 10.89 31.84 21.75"/>
        <polygon class="cls-2" points="34.04 21.75 31.84 21.75 20.73 10.89 19.48 15.49 20.11 16.92 18.05 20.23 13.58 15.44 20.79 8.33 27.68 15.3 30.72 18.38 34.04 21.75"/>
      </g>
      <circle class="cls-1" cx="30.6" cy="2.92" r="2.92"/>
      <polyline class="cls-1" points="10.83 12.7 10.83 6.41 12.82 6.41 12.82 15.08"/>
      <polyline class="cls-1" points="16.75 12.7 16.75 6.41 18.73 6.41 18.73 15.08"/>
      <ellipse class="cls-1" cx="14.79" cy="6.35" rx="1.75" ry="1.17"/>
      <polyline class="cls-1" points="12.82 6.41 12.82 5.01 10.83 6.41"/>
      <polyline class="cls-1" points="16.75 6.41 16.75 5.01 18.73 6.41"/>
      <circle class="cls-3" cx="14.79" cy="6.35" r=".29"/>
    </g>
  </g>
</svg>