<?xml version="1.0" encoding="UTF-8"?>
<svg id="Layer_2" data-name="Layer 2" xmlns="http://www.w3.org/2000/svg" viewBox="0 0 29.34 30.49">
  <defs>
    <style>
      .cls-1 {
        fill: #fff;
      }

      .cls-1, .cls-2 {
        stroke: #168a7c;
        stroke-linecap: round;
        stroke-linejoin: round;
        stroke-width: .75px;
      }

      .cls-2 {
        fill: #168a7c;
      }
    </style>
  </defs>
  <g id="Layer_1-2" data-name="Layer 1">
    <g>
      <path class="cls-1" d="M6.98,28.79c7.55,3.31,12.51-.6,12.51-.6,0,0-5.01-8.18,4.45-10.48,0,0,2.09-.52,1.66-2.47,0,0-1.93-9.75-13.45-9.04C12.15,6.2-.21,7.54.4,19.53c0,0,.65,6.65,6.59,9.26Z"/>
      <circle class="cls-1" cx="13.52" cy="10.62" r="1.77"/>
      <circle class="cls-1" cx="8.08" cy="11.92" r="1.77"/>
      <circle class="cls-1" cx="5.21" cy="17.13" r="1.77"/>
      <circle class="cls-1" cx="5.86" cy="22.53" r="1.77"/>
      <circle class="cls-1" cx="10.41" cy="25.9" r="1.77"/>
      <path class="cls-1" d="M16.04,14.73s-1.55-.08-2.84,1.38c-.75.85-.69,1.69-.51,2.25.2.63.05,1.33-.33,1.87-.25.35-.57.72-.99,1.05,0,0,3.44.11,5.34-1.32s1.18-3.71,1.18-3.71"/>
      <path class="cls-2" d="M17.89,16.25l-1.85-1.52C20.01,5.99,27.23.38,27.23.38l1.74,1.3s-3,7.45-11.07,14.58Z"/>
    </g>
  </g>
</svg>