<?xml version="1.0" encoding="UTF-8"?>
<svg id="Layer_2" data-name="Layer 2" xmlns="http://www.w3.org/2000/svg" viewBox="0 0 24.56 30.86">
  <defs>
    <style>
      .cls-1 {
        fill: #168a7c;
        stroke-width: 0px;
      }

      .cls-2 {
        stroke-linecap: round;
        stroke-linejoin: round;
        stroke-width: .5px;
      }

      .cls-2, .cls-3 {
        fill: #fff;
        stroke: #168a7c;
      }

      .cls-3 {
        stroke-miterlimit: 10;
        stroke-width: .75px;
      }
    </style>
  </defs>
  <g id="Layer_1-2" data-name="Layer 1">
    <g>
      <rect class="cls-3" x=".38" y=".93" width="23.81" height="29.55" rx="2" ry="2"/>
      <path class="cls-1" d="M12.51,4.89c-.13,0-.63.04-1.28.22-1.03.3-1.83.84-2.39,1.31,0,0-1.22,1.34-1.17,2.83,0,0-1.3,1.64-1.48,2.57-.19.93.42.68.42.68,0,0,.35-.07.38.34.02.41-.24.84-.24.84,0,0-.08.26.01.44.1.18-.17.45-.17.45,0,0-.16.41.19.66.34.25,1.02.06,1.73.54.71.48.61,1.49.61,1.49l.05,1.08s.08.45-.77,1.36c0,0-.48.69-.57,1.08-.09.39,1.06.66,1.06.66,2.59.01,4.47-.16,4.95-.27.39-.09.76-.19.76-.19.23-.06.14-.04.56-.17.12-.03.26-.08.42-.15.09-.04.14-.06.21-.1.07-.04.09-.06.14-.08.05-.02.17-.07.23-.02.06.05,0,.13.07.2.06.06.17.08.25.04.06-.03.06-.08.12-.1.06-.01.08.03.15.04.13.01.25-.12.28-.15.03-.03.03-.04.11-.15.06-.07.07-.09.09-.1.05-.03.08,0,.2,0,.09,0,.16-.02.2-.03.07-.02.11-.03.16-.07.06-.05.08-.11.09-.12,0-.02.03-.09.01-.16-.02-.07-.07-.09-.13-.16,0,0-.12-.12-.19-.29-.03-.08-.04-.15-.05-.3-.01-.13,0-.21,0-.32.01-.12.02-.16.05-.18.04-.04.11-.05.16-.06.08-.01.1,0,.14-.02.05-.03.07-.08.08-.11.03-.08,0-.12,0-.25,0-.12,0-.17.03-.21.07-.07.19.01.29-.06.03-.02.07-.07.1-.3.01-.14,0-.26,0-.48-.03-.4-.06-.48-.11-.55-.02-.03-.08-.12-.2-.19-.1-.05-.16-.05-.4-.06-.42-.03-.38-.05-.53-.04-.2.02-.27.07-.38.01-.08-.04-.12-.11-.17-.2-.1-.18-.12-.35-.14-.52-.01-.12,0-.13-.03-.33,0-.06-.02-.13-.03-.24-.03-.28-.03-.3-.01-.32.06-.04.17.12.39.17.27.05.5-.11.54-.14.17-.12.23-.28.3-.48.09-.24.05-.27.13-.81.08-.49.15-.7.02-.85-.04-.05-.11-.09-.1-.16,0-.1.15-.12.23-.24.06-.08.08-.2-.03-.66-.06-.27-.09-.33-.15-.54-.1-.39-.06-.43-.17-.99-.09-.45-.12-.46-.12-.64,0-.28.09-.33.11-.68,0-.12.02-.36-.05-.63-.06-.24-.17-.42-.34-.67-.42-.58-.85-.96-.87-.98-.57-.5-1.17-1.03-2.15-1.31-.16-.05-.79-.22-1.62-.18Z"/>
      <line class="cls-2" x1="4.99" y1="24.27" x2="19.55" y2="24.27"/>
      <line class="cls-2" x1="4.99" y1="25.71" x2="19.55" y2="25.71"/>
      <line class="cls-2" x1="9.4" y1="27.15" x2="15.14" y2="27.15"/>
      <path class="cls-1" d="M18.25,0c-.17,0-.3.13-.3.3v3.52l1.31-1.31c.12-.12.31-.12.42,0l1.29,1.29V.3c0-.17-.13-.3-.3-.3h-2.43Z"/>
    </g>
  </g>
</svg>