<?xml version="1.0" encoding="UTF-8"?>
<svg id="Layer_2" data-name="Layer 2" xmlns="http://www.w3.org/2000/svg" viewBox="0 0 34.38 21.62">
  <defs>
    <style>
      .cls-1 {
        fill: #fff;
      }

      .cls-1, .cls-2, .cls-3 {
        stroke: #168a7c;
        stroke-linecap: round;
        stroke-linejoin: round;
        stroke-width: .7px;
      }

      .cls-2 {
        fill: none;
      }

      .cls-3 {
        fill: #168a7c;
      }
    </style>
  </defs>
  <g id="Layer_1-2" data-name="Layer 1">
    <g>
      <path class="cls-3" d="M9.37,2.6l-.49.94-4.14,7.93h0l-.6,1.16-3.78-1.98L5.59.62l3.78,1.98Z"/>
      <path class="cls-3" d="M34.03,10.56l-3.86,1.84-.45-.95-3.73-7.81h0l-.69-1.45,3.86-1.84,4.88,10.21Z"/>
      <path class="cls-1" d="M29.72,11.45s-1.74.41-3.48,2.54c-.04-.05-.06-.07-.06-.07l-8.5-7.64-2.51,2.23s-1.08.8-2.23.35c-1.16-.45-.19-1.95-.19-1.95l3.24-3.69c.17-.14.37-.27.58-.39,1.21-.67,3.01-.89,4.98-.23,2.2.75,4.24,1.02,4.43,1.04h0l3.73,7.81Z"/>
      <path class="cls-1" d="M26.46,16.2c-.99.87-2.03,0-2.03,0l-.23-.2c.06.13.38.97-.33,1.9,0,0-.75,1.14-2.11,0l-.37-.31c.03.16.32,1.4-.31,2-.67.63-1.73.24-1.73.24l-.69-.58s.33.95-.26,1.56c-.58.61-1.01.55-1.85.15l-2.32-1.62,1.01-1.66s.22-1.04-.41-1.45c-.64-.4-1.38-.38-1.38-.38.33-.6-.41-1.24-.41-1.24,0,0-.63-.64-1.83-.09,0,0,.19-.77-.37-1.33-.57-.56-1.46-.1-1.46-.1l-1.55,1.46c-.67-1.91-2.89-2.98-3.09-3.08l4.14-7.93c2.24,1.19,3.49.44,3.49.44,0,0,.97-.61,1.82-.89.84-.28,2.38-.26,2.38-.26-.21.12-.41.25-.58.39l-3.24,3.69s-.97,1.5.19,1.95c1.15.45,2.23-.35,2.23-.35l2.51-2.23,8.5,7.64s.02.02.06.07c.23.28,1.08,1.44.22,2.21Z"/>
      <path class="cls-2" d="M24.2,16s-.01-.02-.01-.02l-4.86-4.35"/>
      <path class="cls-2" d="M17.53,14.28l3.85,3.29s0,.01.01.02"/>
      <path class="cls-2" d="M24.19,15.98s0,.01.01.02"/>
      <line class="cls-2" x1="18.66" y1="19.25" x2="16.67" y2="17.57"/>
      <path class="cls-2" d="M21.38,17.57s0,.01.01.02"/>
      <path class="cls-1" d="M11.21,14.52s-1.49,2.08-1.86,2.28c-.07.04-.13.07-.2.11-.31.16-.68.23-1.38-.21-.85-.54.06-2.15.06-2.15l1.55-1.46s.89-.46,1.46.1c.56.56.37,1.33.37,1.33Z"/>
      <path class="cls-2" d="M4.74,11.47h-.01"/>
      <path class="cls-1" d="M13.45,15.85l-1.98,2.75-.06.08s-.81.54-1.68.11c-.6-.29-.58-1.88-.58-1.88.07-.04.13-.07.2-.11.37-.2,1.86-2.28,1.86-2.28,1.2-.55,1.83.09,1.83.09,0,0,.74.64.41,1.24Z"/>
      <path class="cls-1" d="M15.24,17.68l-1.01,1.66-.58.61s-.63.5-1.41.21c-.77-.28-.77-1.56-.77-1.56l1.98-2.75s.74-.02,1.38.38c.63.41.41,1.45.41,1.45Z"/>
    </g>
  </g>
</svg>