<?xml version="1.0" encoding="UTF-8"?>
<svg id="Layer_2" data-name="Layer 2" xmlns="http://www.w3.org/2000/svg" viewBox="0 0 38.64 30.94">
  <defs>
    <style>
      .cls-1 {
        fill: #168a7c;
      }

      .cls-1, .cls-2 {
        stroke-width: 0px;
      }

      .cls-2 {
        fill: #fff;
      }
    </style>
  </defs>
  <g id="Layer_1-2" data-name="Layer 1">
    <g>
      <path class="cls-1" d="M6.46,4.86c.32,1.12,1.2,2.07,2.31,2.46s2.38.21,3.34-.46c.73-.52,1.25-1.29,1.72-2.06.89-1.46,1.7-3.09,1.56-4.8.2.86.41,1.73.84,2.5s1.12,1.44,1.98,1.64c.77.18,1.57-.03,2.3-.34,1.61-.68,3.01-1.86,3.95-3.34-.11.78-.21,1.58-.06,2.36s.62,1.53,1.35,1.83c.44.17.92.17,1.39.12,2.04-.2,3.99-1.15,5.4-2.62-1.18,1.57-2.11,3.76-1.08,5.44.64,1.04,1.85,1.56,3.02,1.92,1.36.41,2.75.69,4.16.82-1.13.48-2.3.99-3.1,1.92-1.11,1.28-1.32,3.16-.94,4.82s1.26,3.15,2.12,4.61c-1.74.29-3.6-.56-5.25.07-1.31.5-2.15,1.85-2.34,3.24s.15,2.79.64,4.1c-.69-1.57-2.36-2.45-3.97-3.02-.97-.34-2.05-.61-3-.23-.74.3-1.27.94-1.74,1.59-.78,1.1-1.45,2.28-1.99,3.51.18-1.49-.09-3.04-.77-4.39-.39-.77-.95-1.5-1.76-1.79-.96-.34-2.01.04-2.94.46-1.36.63-2.67,1.37-3.9,2.23.09-1.73,1.6-3.31,1.16-4.98-.22-.85-.94-1.51-1.75-1.84s-1.71-.39-2.59-.36c-1.54.05-3.07.35-4.51.88.93-.6,1.8-1.34,2.36-2.3s.8-2.14.45-3.19c-.64-1.94-2.86-2.78-4.81-3.37,1.57-.25,3.19.11,4.77-.05s3.31-1.16,3.43-2.75c.13-1.67-1.32-3-1.74-4.62h0Z"/>
      <g>
        <path class="cls-2" d="M15.45,14.55c.16.53.08,1.02-.2,1.46-.28.45-.71.78-1.32,1.06.11.28.22.55.33.83-.53.24-1.04.51-1.54.81-.4-.61-.8-1.22-1.2-1.82-.32-.47-.76-1.1-1.34-1.9.33-.27.86-.62,1.59-.98.89-.44,1.69-.6,2.33-.52.73.09,1.17.46,1.35,1.07ZM14.2,15.5c-.11-.28-.38-.35-.79-.17-.05.02-.1.05-.15.07.13.32.26.63.39.95.5-.24.69-.51.55-.86Z"/>
        <path class="cls-2" d="M20.46,14.14c.01.69-.19,1.27-.55,1.77-.38.52-.84.81-1.44.9-.62.09-1.16-.04-1.67-.43-.49-.36-.85-.86-1.04-1.52-.21-.71-.14-1.33.25-1.86.37-.5.96-.83,1.74-.95.77-.12,1.43.03,1.92.4.53.39.77.97.79,1.7ZM18.83,14.76c-.06-.54-.31-.79-.76-.72-.44.07-.6.38-.5.92.04.22.13.41.27.57.15.19.31.27.48.24.17-.02.3-.15.4-.38.09-.21.13-.42.11-.63Z"/>
        <path class="cls-2" d="M28.69,13.57c-.4.35-1.04.95-1.82,1.84-.35.42-.82,1.01-1.35,1.79-.36-.11-.71-.21-1.07-.29,0-.42-.03-1.15-.14-2.18-.29.46-.66,1.11-1.08,1.94-.36-.06-.72-.1-1.08-.13-.09-.46-.26-1.2-.58-2.23-.19-.56-.49-1.35-.97-2.32.9,0,1.8.04,2.69.15.03.2.09.52.16.96.08.41.15.81.21,1.22.09-.15.24-.41.45-.78-.06-.36-.14-.79-.25-1.31.81.12,1.61.29,2.4.51,0,.19-.02.5-.05.93-.01.29-.03.69-.08,1.22.23-.35.47-.69.72-1.03.14-.19.31-.45.53-.78.44.15.87.31,1.3.5Z"/>
        <path class="cls-2" d="M31.46,14.98c-.37.31-.77.69-1.2,1.13-.2.2-.39.4-.59.6-.22.23-.35.39-.4.48-.02.03-.03.05-.03.07-.01,0-.12-.05-.34-.15-.12-.05-.25-.1-.4-.14.09-.31.24-.82.42-1.54.06-.34.17-.88.31-1.64.76.35,1.51.74,2.24,1.19ZM29.03,18.25c-.08.13-.2.21-.38.23-.18.02-.34-.01-.51-.1-.17-.09-.3-.21-.38-.37-.08-.16-.09-.3-.03-.45.07-.14.19-.23.36-.26.17-.03.36,0,.55.11.18.09.3.22.38.38.08.17.08.32,0,.45Z"/>
      </g>
    </g>
  </g>
</svg>