<?xml version="1.0" encoding="UTF-8"?>
<svg id="Layer_2" data-name="Layer 2" xmlns="http://www.w3.org/2000/svg" viewBox="0 0 26.81 28.92">
  <defs>
    <style>
      .cls-1, .cls-2, .cls-3, .cls-4 {
        stroke: #168a7c;
        stroke-linecap: round;
        stroke-linejoin: round;
      }

      .cls-1, .cls-2, .cls-5 {
        fill: #fff;
      }

      .cls-1, .cls-4 {
        stroke-width: .75px;
      }

      .cls-2, .cls-3 {
        stroke-width: .5px;
      }

      .cls-3 {
        fill: none;
      }

      .cls-4 {
        fill: #168a7c;
      }

      .cls-5 {
        stroke-width: 0px;
      }
    </style>
  </defs>
  <g id="Layer_1-2" data-name="Layer 1">
    <g>
      <g>
        <circle class="cls-2" cx="12.43" cy="13.74" r="4.25"/>
        <path class="cls-2" d="M14.78,17.94c-1.63-1.69-1.59-4.38.1-6.02.9-.87,2.09-1.27,3.25-1.18.15-.23.34-.45.55-.66,1.68-1.62,4.38-1.59,6.02.1s1.58,4.39-.1,6.02c-.9.87-2.09,1.27-3.25,1.18-.15.23-.34.45-.55.66-1.69,1.63-4.38,1.59-6.02-.1Z"/>
        <circle class="cls-2" cx="20.17" cy="15.43" r="4.25"/>
        <path class="cls-2" d="M12.88,15.05c0,2.35-1.9,4.25-4.25,4.25-1.25,0-2.38-.54-3.16-1.41-.26.06-.56.09-.85.09-2.34,0-4.25-1.9-4.25-4.25s1.92-4.25,4.25-4.25c1.25,0,2.38.54,3.16,1.41.26-.06.56-.09.85-.09,2.35,0,4.25,1.9,4.25,4.25Z"/>
        <path class="cls-1" d="M7.41,25.09h11.86v2.52c0,.51-.42.93-.93.93h-10.01c-.51,0-.93-.42-.93-.93v-2.52h0Z"/>
        <path class="cls-1" d="M26.43,13.19c0,.12-.02,1.64-.54,3.61H.93c-.51-2.03-.56-3.61-.56-3.61h26.06Z"/>
        <path class="cls-4" d="M25.89,16.8c-.74,2.72-2.49,6.33-6.62,8.29H7.4c-3.99-1.33-5.72-5.29-6.45-8.29h24.94Z"/>
        <line class="cls-3" x1="16.33" y1="13.2" x2="24.04" y2=".25"/>
        <line class="cls-3" x1="18.5" y1="13.2" x2="25.88" y2=".8"/>
      </g>
      <g>
        <path class="cls-5" d="M9.73,19.68c.19,0,.32.07.4.2.05.07.07.16.07.26,0,.15-.05.34-.15.57-.22.52-.58.96-1.1,1.34-.27.2-.55.35-.85.46-.07.03-.14.04-.19.04-.07,0-.13-.03-.17-.09-.03-.05-.05-.1-.05-.15,0-.07.03-.14.1-.19.01,0,.09-.05.22-.12.32-.17.63-.4.91-.71.24-.25.41-.52.53-.78.04-.09.06-.15.06-.19,0-.04-.03-.06-.09-.06-.03,0-.32.02-.88.05l-1.05.07c-.4.03-.61.04-.62.04-.1,0-.18-.04-.23-.11-.03-.05-.05-.1-.05-.17,0-.17.08-.27.25-.3.1-.01.9-.07,2.37-.15.12,0,.21-.01.27-.02.13,0,.21-.01.23-.01ZM9.34,18.56c.08,0,.15.03.2.1.04.05.06.11.06.18,0,.16-.08.26-.23.28-.12.02-.3.04-.54.06-.06,0-.33.02-.8.05-.29.02-.48.02-.58.02-.21,0-.31-.1-.31-.29,0-.15.06-.24.18-.27.03,0,.1-.01.21-.01.45,0,.98-.04,1.58-.1.02,0,.07,0,.16-.02.03,0,.05,0,.07,0Z"/>
        <path class="cls-5" d="M13.5,20.01c.21-.37.41-.79.58-1.27.06-.18.17-.27.31-.27.06,0,.11,0,.16.03.13.05.19.15.19.28,0,.05-.02.13-.06.23-.18.46-.39.9-.65,1.34.21.15.38.29.53.43.09.09.13.18.13.29s-.04.19-.12.26c-.06.05-.12.07-.19.07-.09,0-.19-.05-.28-.14-.13-.13-.27-.26-.43-.39-.43.55-.91.97-1.44,1.28-.21.12-.35.18-.44.18-.08,0-.14-.03-.18-.09-.03-.05-.05-.1-.05-.14,0-.07.03-.13.1-.19.02-.01.08-.05.18-.12.48-.32.94-.75,1.36-1.3-.22-.16-.43-.3-.62-.42-.11-.06-.16-.14-.16-.22,0-.04,0-.07.03-.1.04-.09.11-.13.22-.13.13,0,.41.13.86.4Z"/>
        <path class="cls-5" d="M18.17,20.91c-.44.34-.78.72-1.03,1.13,0,.01-.03.04-.06.09-.01.02-.03.04-.04.07-.07.11-.16.16-.27.16-.05,0-.11-.02-.16-.05-.1-.06-.14-.15-.14-.26,0-.07.04-.19.13-.38.39-.87.9-1.88,1.53-3.04.07-.13.17-.2.29-.2.07,0,.14.02.21.07.08.06.12.13.12.22,0,.06-.04.15-.12.28-.29.48-.62,1.1-1.02,1.85h0c.19-.19.39-.35.6-.47.1-.06.18-.09.26-.09s.15.03.22.08c.08.07.11.15.11.26,0,.03,0,.08-.01.15,0,.07-.01.15-.01.25,0,.28.03.48.09.6.06.12.16.17.31.17s.32-.07.49-.22c.18-.15.34-.35.46-.6.05-.1.12-.15.21-.15.05,0,.1.01.14.04.07.04.1.1.1.19,0,.11-.07.27-.2.5-.14.24-.3.43-.5.57-.24.17-.49.25-.77.25-.43,0-.71-.18-.84-.55-.05-.15-.08-.4-.08-.72,0-.06,0-.13,0-.21h-.01Z"/>
      </g>
    </g>
  </g>
</svg>