<?xml version="1.0" encoding="UTF-8"?>
<svg id="Layer_2" data-name="Layer 2" xmlns="http://www.w3.org/2000/svg" viewBox="0 0 28.71 28.19">
  <defs>
    <style>
      .cls-1 {
        fill: #168a7c;
      }

      .cls-1, .cls-2 {
        stroke-width: 0px;
      }

      .cls-3 {
        stroke: #168a7c;
        stroke-linecap: round;
        stroke-linejoin: round;
        stroke-width: .23px;
      }

      .cls-3, .cls-2 {
        fill: #fff;
      }
    </style>
  </defs>
  <g id="Layer_1-2" data-name="Layer 1">
    <g>
      <g>
        <path class="cls-1" d="M15.42,10.92l6.76-6.7-.39-.4,1.12-1.27,3.48-2.55,1.2,1.2-2.56,3.45-1.22,1.02-.41-.4-6.76,6.85-5.22,8.48-6.96,6.99C-.65,27.46.03,23.16.03,23.16l6.98-7.05,8.54-5.31"/>
        <rect class="cls-3" x=".35" y="20.25" width="9.34" height="1.11" rx=".53" ry=".53" transform="translate(-13.24 9.64) rotate(-45)"/>
        <rect class="cls-3" x="2.19" y="22.09" width="9.34" height="1.11" rx=".53" ry=".53" transform="translate(-14 11.48) rotate(-45)"/>
      </g>
      <g>
        <circle class="cls-2" cx="22.42" cy="21.91" r="6.16"/>
        <g>
          <path class="cls-1" d="M28.71,21.91c0,.54-.07,1.08-.21,1.58l-3.52-3.56-3.52.88-.89,3.5,3.61,3.64c-.56.16-1.14.25-1.74.25-3.47,0-6.29-2.81-6.29-6.28,0-.64.1-1.27.28-1.87.61-1.97,2.15-3.51,4.12-4.12.59-.2,1.24-.3,1.89-.3,3.46,0,6.28,2.81,6.28,6.28Z"/>
          <path class="cls-1" d="M7.14,2.55l-.12-.12c-.53-.51-1.25-.83-2.04-.83-1.61,0-2.92,1.31-2.92,2.93,0,.77.3,1.45.75,1.97l.31.3,13.29,13.26c.61-1.97,2.15-3.51,4.12-4.12L7.14,2.55ZM17.1,17.83c-.22,0-.43-.07-.62-.19l-.3-.3h0S6.17,7.2,6.17,7.2l-1.38-1.4h-.02s-.23-.26-.23-.26c-.14-.19-.22-.41-.22-.66,0-.61.49-1.1,1.1-1.1.31,0,.59.12.8.33l1.5,1.52,10.12,10.26.19.19c.12.19.2.41.2.64,0,.61-.49,1.1-1.1,1.1Z"/>
          <path class="cls-2" d="M18.2,16.73c0,.61-.49,1.1-1.1,1.1-.22,0-.43-.07-.62-.19l-.3-.3h0S6.17,7.2,6.17,7.2l-1.38-1.4h-.02s-.23-.26-.23-.26c-.14-.19-.22-.41-.22-.66,0-.61.49-1.1,1.1-1.1.31,0,.59.12.8.33l1.5,1.52,10.12,10.26.19.19c.12.19.2.41.2.64Z"/>
        </g>
      </g>
    </g>
  </g>
</svg>