<?xml version="1.0" encoding="UTF-8"?>
<svg id="Layer_2" data-name="Layer 2" xmlns="http://www.w3.org/2000/svg" viewBox="0 0 30.87 27.02">
  <defs>
    <style>
      .cls-1 {
        fill: #168a7c;
        stroke-width: 0px;
      }

      .cls-2 {
        fill: #fff;
        stroke: #fff;
        stroke-linecap: round;
        stroke-linejoin: round;
        stroke-width: .06px;
      }
    </style>
  </defs>
  <g id="Layer_1-2" data-name="Layer 1">
    <g>
      <path class="cls-1" d="M29.57,0c-.1-.03-.19.27-.6.63-.28.25-.35.19-.88.55-.47.31-.46.39-.79.56-.35.18-.65.26-.81.3-.19.04-.41.08-1.27.08-.92,0-1.14-.04-1.67.03-.25.04-.44.06-.69.15-.5.17-.61.35-1.16.66-.24.14-.59.28-1.29.56-.74.3-.76.28-1.06.43-.38.19-.38.25-1.06.68-.82.52-.87.48-1.17.74-.05.04-.29.33-.78.89-.38.44-.57.67-.66.86-.05.11-.08.19-.25.94-.2.9-.2.95-.26,1.11-.11.27-.28.54-.76,1.01-.77.74-1.11.79-1.85,1.39-.42.34-.18.22-1.6,1.69-.94.97-1.03,1.01-1.39,1.45-.3.37-.61.74-.91,1.11-.28.35-.33.41-.45.5-.45.34-.98.3-1.47.3-.73,0-1.44.15-2.17.21-.79.07-1.48.14-2.33.3-.6.11-.92.2-1.27.41-.29.18-.77.47-.93.98-.27.87.6,1.78.86,2.05.23.24.42.38,1.79,1.12,1.21.66,1.81.99,2.3,1.21.69.31,1.23.49,2.3.86.85.29,1.46.48,2.55.81,1.4.43,2.1.64,2.91.86.69.19,1.84.49,3.36.79,2.03.4,3.64.57,4.41.64.57.05,1.32.12,2.33.15,1.25.03,2.16-.02,3.06-.07.55-.03,1.26-.08,2.15-.21.54-.08,1-.18,1.52-.4.57-.24.97-.42,1.17-.84.25-.53.03-1.1-.02-1.21-.14-.34-.35-.55-1.01-1.06-.73-.57-1.1-.85-1.55-1.14-.5-.31-1-.58-2.02-1.12-.2-.11-.7-.37-1.31-.81-.55-.4-.72-.6-.81-.84-.17-.45-.05-.88,0-1.02.15-.49.42-.6.64-.96.33-.52.16-.94.05-2.41-.06-.78-.04-1.55-.07-2.33,0,0-.02-.78-.02-2.36,0-.88.02-1.06.12-1.32.2-.52.41-.49.98-1.42.27-.44.33-.62.61-.94.3-.34.63-.57.66-.6.41-.29.5-.24.73-.46.16-.16.26-.37.45-.79.23-.5.19-.55.36-.84.17-.28.23-.26.41-.58.04-.07.19-.32.31-.68.08-.24.12-.41.18-.69.04-.18.09-.44.13-.76.05-.43.13-1.08-.02-1.12Z"/>
      <polygon class="cls-2" points="15.06 12.34 15.06 14.14 16.78 14.7 15.06 15.26 15.06 17.06 14.01 15.6 12.29 16.16 13.35 14.7 12.29 13.24 14.01 13.8 15.06 12.34"/>
      <polygon class="cls-2" points="20.87 16.93 21.73 17.7 22.72 17.12 22.25 18.17 23.11 18.94 21.96 18.82 21.5 19.87 21.26 18.74 20.12 18.62 21.11 18.05 20.87 16.93"/>
      <polygon class="cls-2" points="23.13 8.55 23.07 9.7 24.15 10.1 23.04 10.4 22.98 11.55 22.36 10.59 21.25 10.89 21.97 10 21.34 9.04 22.41 9.44 23.13 8.55"/>
      <polygon class="cls-2" points="17.5 9.15 17.48 9.66 17.96 9.85 17.46 9.98 17.44 10.49 17.16 10.06 16.66 10.2 16.98 9.8 16.7 9.37 17.18 9.55 17.5 9.15"/>
      <polygon class="cls-2" points="23.52 2.71 24.1 3.7 25.22 3.46 24.45 4.32 25.03 5.31 23.98 4.85 23.22 5.7 23.33 4.56 22.28 4.1 23.4 3.86 23.52 2.71"/>
    </g>
  </g>
</svg>