<?xml version="1.0" encoding="UTF-8"?>
<svg id="Layer_2" data-name="Layer 2" xmlns="http://www.w3.org/2000/svg" viewBox="0 0 35 21.82">
  <defs>
    <style>
      .cls-1 {
        fill: #168a7c;
        stroke-width: 0px;
      }

      .cls-2 {
        fill: none;
      }

      .cls-2, .cls-3 {
        stroke: #168a7c;
        stroke-linecap: round;
        stroke-linejoin: round;
        stroke-width: .75px;
      }

      .cls-3 {
        fill: #fff;
      }
    </style>
  </defs>
  <g id="Layer_1-2" data-name="Layer 1">
    <g>
      <circle class="cls-3" cx="6.9" cy="11.82" r="6.52"/>
      <circle class="cls-3" cx="21.31" cy="12.85" r="8.02"/>
      <circle class="cls-1" cx="17.97" cy="11.92" r="1.34"/>
      <circle class="cls-1" cx="9.91" cy="11.05" r=".96"/>
      <circle class="cls-1" cx="4.23" cy="12.57" r=".96"/>
      <circle class="cls-1" cx="24.34" cy="14.1" r="1.34"/>
      <path class="cls-2" d="M4.68,15.51s3.58,2.12,6.01-1.64"/>
      <path class="cls-1" d="M18.92,18.54c-.89-.28-1.32-3.36-1.32-3.36,0,0,2.72,1.91,5.07,1.74,0,0-2.21,2.11-3.75,1.62Z"/>
      <path class="cls-1" d="M6.02,5.32s2.69.74,2.45,2.41-2.19,2.68-2.19,2.68c.66-1.72-.71-2.52-.71-2.52,0,0-.57.97-.24,1.72-2.17-.82-2.21-3.14-2.21-3.14"/>
      <path class="cls-1" d="M27.86,8.18c.57,2.73-.49,3.87-.49,3.87-6.36-.48-5.53-5.55-5.53-5.55-2.45,1.85-4.71,1.57-4.71,1.57.34-1.74,2.16-2.99,2.16-2.99l2.71-.27,3.51.96s1.46,1.06,1.48,1.08.87,1.33.87,1.33Z"/>
      <path class="cls-1" d="M16.87,6.22l-2.15-1.01s-3.18-1.5-2.57-2.48,3.42-1.85,3.42-1.85c0,0,1.75-.69,3.77-.89.16-.02.29.1.31.25.05.4.02,1.28-.59,2.89l-.78,2.32"/>
      <path class="cls-1" d="M29.18,11.56l2.21.86s3.28,1.26,3.57.15-1.03-3.75-1.03-3.75c0,0-.72-1.74-1.97-3.34-.1-.12-.27-.15-.4-.05-.32.25-.94.87-1.68,2.43l-1.14,2.17"/>
      <path class="cls-1" d="M9.98,19.73s-2.19,1.79-3.15,2.09c-1.33-1.17-1.16-2.72-1.16-2.72,1.97-.35,4.09-.03,4.09-.03,0,0,1.3-1.64,2.99-2.71,0,0,1.17,1.03.97,2.79-.91.42-3.73.57-3.73.57Z"/>
    </g>
  </g>
</svg>