<?xml version="1.0" encoding="UTF-8"?>
<svg id="Layer_2" data-name="Layer 2" xmlns="http://www.w3.org/2000/svg" viewBox="0 0 31.36 25.14">
  <defs>
    <style>
      .cls-1 {
        fill: #168a7c;
      }

      .cls-1, .cls-2 {
        stroke-width: 0px;
      }

      .cls-2 {
        fill: #fff;
      }
    </style>
  </defs>
  <g id="Layer_1-2" data-name="Layer 1">
    <g>
      <path class="cls-1" d="M16.03,25.14h-1.89c-.1-.02-.2-.05-.3-.06-6.37-.68-10.97-6.68-9.96-13.01.06-.37.13-.73.2-1.14-.15,0-.26,0-.37,0-.69,0-1.38-.03-2.07,0-.77.05-1.32-.21-1.63-.94V.94C.18.49.5.19.94,0h8.99c.73.27,1.03.8.98,1.56-.03.53,0,1.06,0,1.63.17-.06.3-.1.42-.15,1.64-.59,3.34-.82,5.07-.57,4.48.63,7.57,3.07,9.29,7.25.09.21.19.27.41.27,1.21,0,2.43.02,3.64-.02.77-.02,1.32.22,1.62.95v9.05c-.32.74-.89.98-1.66.94-.75-.04-1.51,0-2.26-.01-.25,0-.44.07-.62.22-.52.43-1.04.85-1.58,1.25-.14.1-.37.16-.53.13-.23-.05-.27-.29-.26-.51,0-.35,0-.71,0-1.05-.34-.09-.56-.01-.77.24-1.56,1.85-3.53,3.06-5.89,3.62-.58.14-1.17.22-1.75.32ZM6.06,11.25c0-.26,0-.43,0-.61,0-.45.14-.58.58-.58.93,0,1.86,0,2.79,0,.51,0,.61-.09.61-.6,0-2.67,0-5.34,0-8.01,0-.49-.1-.58-.59-.58-2.67,0-5.34,0-8.01,0-.49,0-.58.09-.58.59,0,2.68,0,5.36,0,8.04,0,.46.11.56.58.57.92,0,1.84-.01,2.76.01.22,0,.47.1.65.23.39.27.76.59,1.21.95ZM25.3,21.24c.46-.36.83-.69,1.23-.97.18-.12.41-.21.62-.22.95-.02,1.9,0,2.86-.01.35,0,.49-.12.49-.46,0-2.75,0-5.51,0-8.26,0-.34-.13-.46-.45-.47-2.74,0-5.49,0-8.23,0-.38,0-.5.14-.5.52,0,2.71,0,5.42,0,8.13,0,.42.12.53.55.53.94,0,1.88,0,2.83,0,.48,0,.61.13.61.62,0,.16,0,.33,0,.58ZM15.14,17.4c1.03-.06,2.04-.13,3.04-.18.23-.01.32-.09.35-.33.21-2.09.21-4.18,0-6.27-.02-.2-.08-.28-.3-.31-2.09-.24-4.18-.24-6.27.01-.23.03-.31.11-.34.35-.22,2.03-.21,4.05-.02,6.08.03.36.17.45.49.47,1.02.05,2.05.12,3.04.18ZM11.82,18.08c0,.06,0,.11,0,.16.23,1.33.56,2.64,1.13,3.88.3.66.66,1.29,1.22,1.77.59.51,1.2.53,1.79.02.31-.27.59-.6.81-.95.74-1.18,1.11-2.5,1.4-3.84.07-.34.13-.69.19-1.02-1.13.04-2.2.11-3.28.11-1.08,0-2.15-.08-3.26-.12ZM18.34,9.4c-.2-1.58-.81-3.75-1.66-4.97-.19-.28-.42-.55-.68-.78-.6-.53-1.24-.54-1.83,0-.33.3-.61.66-.84,1.04-.73,1.21-1.1,2.55-1.39,3.91-.06.27-.1.55-.14.81,1.12-.06,2.19-.15,3.26-.15,1.08,0,2.17.09,3.27.14ZM4.82,15.77c.73,4.4,4.58,7.74,8.24,8.28-.25-.41-.51-.81-.73-1.23-.72-1.41-1.11-2.93-1.35-4.49-.05-.34-.19-.43-.5-.49-1.98-.35-3.91-.82-5.57-2.06-.02-.02-.06-.01-.09-.02ZM6.92,10.92c0,.43,0,.81,0,1.18-.01.41-.36.59-.7.37q-.47-.3-.89.07c-.12.1-.23.21-.33.33-.51.6-.55,1.17-.02,1.75.34.37.75.7,1.19.96,1.01.61,2.14.94,3.29,1.2.42.1.85.17,1.33.27-.23-2.21-.23-4.37,0-6.55-.1.03-.17.02-.2.05-.38.37-.85.39-1.35.38-.75-.02-1.5,0-2.3,0ZM24.84,10c-1.14-3.31-4.42-6.01-7.76-6.51.05.07.09.13.12.19.33.6.7,1.19.98,1.82.54,1.22.81,2.53,1.04,3.84.02.1.13.26.21.28,1.07.2,2.13.5,3.25.4.7-.06,1.42-.01,2.16-.01ZM20.46,17.77c-.06-.02-.07-.02-.08-.02-.21.04-.41.07-.62.11-.51.08-.5.08-.59.6-.36,1.96-.83,3.87-2.04,5.52-.02.02-.01.06-.03.13,2.22-.45,4.09-1.47,5.6-3.14-.27-.04-.52-.04-.77-.04-1.01,0-1.47-.47-1.47-1.48,0-.55,0-1.11,0-1.67ZM19.36,17.05c.27-.05.5-.11.72-.13.3-.03.38-.16.38-.46-.02-1.91,0-3.82,0-5.78-.31-.06-.68-.13-1.09-.21.23,2.21.23,4.36,0,6.58ZM10.9,9.08c.45-1.97.94-3.92,2.16-5.63-.66.17-1.29.38-1.92.58-.19.06-.24.18-.24.37,0,1.1,0,2.2,0,3.3,0,.46,0,.92,0,1.38Z"/>
      <path class="cls-1" d="M6.06,11.25c-.45-.36-.82-.68-1.21-.95-.18-.13-.43-.22-.65-.23-.92-.03-1.84,0-2.76-.01-.47,0-.58-.1-.58-.57,0-2.68,0-5.36,0-8.04,0-.5.09-.59.58-.59,2.67,0,5.34,0,8.01,0,.49,0,.59.1.59.58,0,2.67,0,5.34,0,8.01,0,.51-.09.6-.61.6-.93,0-1.86,0-2.79,0-.44,0-.57.14-.58.58,0,.17,0,.35,0,.61ZM8.11,8.29c-.04-.16-.05-.23-.08-.3-.72-1.8-1.43-3.6-2.16-5.39-.06-.14-.25-.28-.41-.32-.22-.05-.35.12-.43.33-.71,1.79-1.43,3.58-2.14,5.36-.12.3-.04.53.2.63.24.1.46-.01.59-.31.2-.47.39-.95.57-1.43.07-.19.16-.26.36-.25.5.02,1.01.03,1.51,0,.34-.02.51.09.61.41.14.45.34.88.52,1.31.1.23.28.37.52.27.15-.06.25-.23.35-.32Z"/>
      <path class="cls-1" d="M25.3,21.24c0-.25,0-.41,0-.58,0-.49-.13-.62-.61-.62-.94,0-1.88,0-2.83,0-.43,0-.55-.11-.55-.53,0-2.71,0-5.42,0-8.13,0-.38.13-.52.5-.52,2.74,0,5.49,0,8.23,0,.33,0,.45.13.45.47,0,2.75,0,5.51,0,8.26,0,.34-.14.46-.49.46-.95,0-1.91-.01-2.86.01-.21,0-.45.1-.62.22-.4.28-.77.6-1.23.97ZM25.91,17.4c.47.34.95.71,1.45,1.05.28.19.55.14.68-.08.13-.23.04-.44-.25-.65-.4-.29-.78-.6-1.17-.9-.14-.1-.12-.19-.04-.34.34-.64.66-1.3,1-1.95.05-.09.17-.17.27-.18.21-.03.42,0,.63-.02.23-.02.36-.18.36-.41,0-.22-.12-.38-.34-.42-.13-.02-.27-.01-.41-.01-.57,0-1.15,0-1.75,0,0-.32,0-.6,0-.88,0-.33-.15-.52-.41-.53-.27-.01-.44.18-.45.53,0,.28,0,.56,0,.89-.16,0-.28,0-.41,0-.56,0-1.11,0-1.67,0-.26,0-.41.15-.44.4-.02.24.16.42.43.44.19.01.38,0,.56.01.08,0,.19.05.22.11.36.74.71,1.49,1.1,2.32-.03.03-.14.11-.25.19-.35.25-.7.49-1.03.77-.13.11-.27.28-.28.44-.02.34.34.51.65.31.52-.34,1.02-.72,1.53-1.08Z"/>
      <path class="cls-2" d="M15.14,17.4c-1-.06-2.02-.13-3.04-.18-.32-.02-.45-.11-.49-.47-.19-2.03-.2-4.06.02-6.08.02-.23.11-.32.34-.35,2.09-.25,4.18-.26,6.27-.01.21.02.28.11.3.31.22,2.09.21,4.18,0,6.27-.02.24-.12.32-.35.33-1,.05-2.01.12-3.04.18Z"/>
      <path class="cls-2" d="M11.82,18.08c1.11.05,2.18.12,3.26.12,1.08,0,2.15-.07,3.28-.11-.06.34-.12.68-.19,1.02-.29,1.35-.66,2.67-1.4,3.84-.22.35-.5.68-.81.95-.58.51-1.19.48-1.79-.02-.56-.48-.91-1.11-1.22-1.77-.57-1.24-.89-2.54-1.13-3.88,0-.05,0-.1,0-.16Z"/>
      <path class="cls-2" d="M18.34,9.4c-1.11-.05-2.19-.14-3.27-.14-1.07,0-2.15.1-3.26.15.05-.27.09-.54.14-.81.29-1.37.66-2.71,1.39-3.91.23-.38.52-.74.84-1.04.59-.54,1.23-.53,1.83,0,.25.23.48.5.68.78.85,1.23,1.46,3.4,1.66,4.97Z"/>
      <path class="cls-2" d="M4.82,15.77s.07,0,.09.02c1.65,1.23,3.59,1.71,5.57,2.06.31.05.45.14.5.49.24,1.56.63,3.08,1.35,4.49.22.42.49.82.73,1.23-3.66-.54-7.5-3.88-8.24-8.28Z"/>
      <path class="cls-2" d="M6.92,10.92c.8,0,1.55-.01,2.3,0,.49,0,.96-.02,1.35-.38.03-.03.09-.03.2-.05-.23,2.19-.23,4.34,0,6.55-.48-.09-.91-.17-1.33-.27-1.15-.26-2.28-.59-3.29-1.2-.43-.26-.85-.59-1.19-.96-.52-.58-.48-1.15.02-1.75.1-.12.22-.23.33-.33q.42-.37.89-.07c.34.22.69.04.7-.37.01-.37,0-.75,0-1.18Z"/>
      <path class="cls-2" d="M24.84,10c-.74,0-1.45-.05-2.16.01-1.12.09-2.18-.2-3.25-.4-.09-.02-.19-.17-.21-.28-.23-1.31-.5-2.62-1.04-3.84-.28-.63-.65-1.21-.98-1.82-.03-.06-.07-.12-.12-.19,3.34.5,6.63,3.21,7.76,6.51Z"/>
      <path class="cls-2" d="M20.46,17.77c0,.56,0,1.11,0,1.67,0,1.02.47,1.48,1.47,1.48.25,0,.5,0,.77.04-1.51,1.67-3.38,2.69-5.6,3.14.01-.07.01-.11.03-.13,1.21-1.64,1.68-3.56,2.04-5.52.09-.51.08-.51.59-.6.21-.03.41-.07.62-.11,0,0,.02,0,.08.02Z"/>
      <path class="cls-2" d="M19.36,17.05c.23-2.22.24-4.37,0-6.58.41.08.78.15,1.09.21,0,1.96,0,3.87,0,5.78,0,.3-.08.44-.38.46-.23.02-.45.08-.72.13Z"/>
      <path class="cls-2" d="M10.9,9.08c0-.46,0-.92,0-1.38,0-1.1,0-2.2,0-3.3,0-.2.05-.31.24-.37.63-.2,1.26-.42,1.92-.58-1.22,1.71-1.7,3.66-2.16,5.63Z"/>
      <path class="cls-2" d="M8.11,8.29c-.1.09-.2.26-.35.32-.24.1-.43-.04-.52-.27-.18-.43-.37-.87-.52-1.31-.1-.32-.27-.43-.61-.41-.5.03-1,.02-1.51,0-.21,0-.3.07-.36.25-.18.48-.38.95-.57,1.43-.12.3-.34.41-.59.31-.24-.1-.32-.33-.2-.63.71-1.79,1.43-3.58,2.14-5.36.08-.2.22-.38.43-.33.16.04.35.18.41.32.73,1.79,1.45,3.59,2.16,5.39.03.07.04.14.08.3ZM5.45,3.87c-.27.68-.51,1.27-.75,1.88h1.5c-.25-.62-.48-1.2-.75-1.88Z"/>
      <path class="cls-2" d="M25.91,17.4c-.51.36-1.01.74-1.53,1.08-.31.2-.68.03-.65-.31.01-.15.15-.33.28-.44.33-.27.69-.51,1.03-.77.11-.08.22-.16.25-.19-.39-.83-.74-1.58-1.1-2.32-.03-.06-.14-.11-.22-.11-.19-.02-.38,0-.56-.01-.27-.02-.45-.2-.43-.44.02-.25.18-.4.44-.4.56,0,1.11,0,1.67,0,.12,0,.25,0,.41,0,0-.32,0-.61,0-.89,0-.35.18-.54.45-.53.26.01.41.2.41.53,0,.28,0,.56,0,.88.61,0,1.18,0,1.75,0,.14,0,.27,0,.41.01.23.04.35.2.34.42,0,.22-.13.38-.36.41-.21.02-.42,0-.63.02-.1.01-.22.1-.27.18-.34.65-.66,1.3-1,1.95-.08.15-.1.24.04.34.39.3.77.61,1.17.9.29.21.39.42.25.65-.13.23-.4.28-.68.08-.5-.34-.98-.71-1.45-1.05ZM25.03,14.37c.3.57.56,1.07.82,1.58.04,0,.09-.01.13-.02.26-.5.51-1.01.8-1.56h-1.75Z"/>
      <path class="cls-1" d="M5.45,3.87c.27.67.5,1.26.75,1.88h-1.5c.24-.61.48-1.2.75-1.88Z"/>
      <path class="cls-1" d="M25.03,14.37h1.75c-.28.56-.54,1.06-.8,1.56-.04,0-.09.01-.13.02-.26-.5-.53-1.01-.82-1.58Z"/>
    </g>
  </g>
</svg>