<?xml version="1.0" encoding="UTF-8"?>
<svg id="Layer_2" data-name="Layer 2" xmlns="http://www.w3.org/2000/svg" viewBox="0 0 29.25 29.35">
  <defs>
    <style>
      .cls-1 {
        fill: #168a7c;
      }

      .cls-1, .cls-2 {
        stroke-width: 0px;
      }

      .cls-3 {
        fill: none;
        stroke: #168a7c;
        stroke-miterlimit: 10;
        stroke-width: .5px;
      }

      .cls-2 {
        fill: #fff;
      }
    </style>
  </defs>
  <g id="Layer_1-2" data-name="Layer 1">
    <g>
      <g>
        <path class="cls-1" d="M0,14.74c.57-.22,1.1-.43,1.63-.64,2.91-1.15,5.82-2.3,8.74-3.44.09-.03.13-.08.17-.17,1.33-3.39,2.67-6.78,4.01-10.17.02-.06.05-.11.08-.2.03.08.05.12.07.17,1.34,3.39,2.67,6.78,4.01,10.17.04.11.1.17.21.21,3.39,1.34,6.79,2.67,10.18,4.01.04.02.08.03.15.06-.08.03-.13.05-.18.07-3.38,1.33-6.76,2.67-10.15,4-.12.05-.18.11-.23.23-1.34,3.4-2.68,6.8-4.02,10.2-.01.03-.03.06-.05.12-.03-.06-.05-.09-.06-.13-1.34-3.4-2.68-6.79-4.02-10.19-.04-.11-.1-.17-.21-.21-3.39-1.33-6.77-2.67-10.16-4-.05-.02-.1-.04-.19-.08ZM16.45,12.91c-1.01-1.01-2.64-1.01-3.65,0-1.01,1.02-1.02,2.64,0,3.66,1.02,1.02,2.64,1.01,3.69-.03.98-.98.96-2.62-.03-3.62Z"/>
        <path class="cls-2" d="M16.45,12.91c1,1,1.01,2.64.03,3.62-1.04,1.04-2.66,1.06-3.69.03-1.01-1.01-1.01-2.64,0-3.66,1.01-1.01,2.64-1,3.65,0Z"/>
      </g>
      <path class="cls-3" d="M15.71.25c.82.13,2.17.45,3.62,1.35,1.37.85,2.24,1.86,2.72,2.52"/>
      <path class="cls-3" d="M18.08,2.66c.67.32,1.81.97,2.83,2.2.85,1.03,1.27,2.05,1.48,2.71"/>
      <path class="cls-3" d="M13.06,28.69c-.82-.13-2.17-.45-3.62-1.35-1.37-.85-2.24-1.86-2.72-2.52"/>
      <path class="cls-3" d="M10.69,26.27c-.67-.32-1.81-.97-2.83-2.2-.85-1.03-1.27-2.05-1.48-2.71"/>
    </g>
  </g>
</svg>