<?xml version="1.0" encoding="UTF-8"?>
<svg id="Layer_2" data-name="Layer 2" xmlns="http://www.w3.org/2000/svg" viewBox="0 0 29.62 25.72">
  <defs>
    <style>
      .cls-1 {
        fill: #168a7c;
        stroke-width: 0px;
      }

      .cls-2, .cls-3, .cls-4 {
        fill: none;
      }

      .cls-2, .cls-3, .cls-4, .cls-5 {
        stroke: #168a7c;
      }

      .cls-2, .cls-4 {
        stroke-linecap: round;
        stroke-linejoin: round;
      }

      .cls-2, .cls-5 {
        stroke-width: .83px;
      }

      .cls-3 {
        stroke-width: 1.11px;
      }

      .cls-3, .cls-5 {
        stroke-miterlimit: 10;
      }

      .cls-4 {
        stroke-width: .56px;
      }

      .cls-5 {
        fill: #fff;
      }
    </style>
  </defs>
  <g id="Layer_1-2" data-name="Layer 1">
    <g>
      <circle class="cls-5" cx="13.25" cy="9.36" r="6.35"/>
      <line class="cls-3" x1="17.74" y1="13.85" x2="28.68" y2="24.78"/>
      <rect class="cls-1" x="24.05" y="17.41" width="3.16" height="8.64" rx=".42" ry=".42" transform="translate(-7.86 24.48) rotate(-45)"/>
      <path class="cls-4" d="M2.28,2.42c.2-.18.49-.41.86-.65.5-.31.91-.47,1.27-.61.58-.23,1.04-.34,1.47-.45.48-.12.85-.19,1.18-.24.57-.1.87-.16,1.31-.18.6-.04.99,0,1.19.03.17.02.32.05.42.07"/>
      <path class="cls-4" d="M.28,9.41c-.01-.34,0-.78.06-1.29.04-.29.1-.75.3-1.33.1-.27.27-.76.63-1.29.29-.43.6-.7,1.23-1.24.59-.51.94-.82,1.5-1.15.56-.34,1.02-.51,1.61-.74.65-.25,1.07-.41,1.66-.52.69-.12,1.28-.1,1.69-.06"/>
      <path class="cls-4" d="M10.28,1.8c.44.02.96.09,1.54.22.54.12,1.01.28,1.4.44"/>
      <path class="cls-4" d="M.76,12.44c-.01-.31,0-.76.08-1.29.09-.56.22-.97.36-1.4.09-.27.26-.75.53-1.34.19-.41.38-.75.54-1.03"/>
      <path class="cls-4" d="M3.18,5.78c.31-.31.74-.71,1.32-1.11.39-.27.89-.61,1.62-.89.82-.31,1.5-.38,2.04-.44.5-.05,1.14-.07,1.87,0"/>
      <path class="cls-4" d="M1.67,14.8c-.05-.62-.06-1.45.1-2.41.2-1.2.56-2.07.8-2.63.26-.61.58-1.34,1.22-2.18.42-.56.86-1.14,1.66-1.66.89-.57,1.75-.76,2.13-.84.32-.07.59-.1.78-.12"/>
      <path class="cls-4" d="M3.27,16.97c-.02-.62-.02-1.5.08-2.56.1-1.04.19-2.01.62-3.22.16-.45.56-1.49,1.33-2.51.46-.61.86-.96,1.24-1.2.27-.18.52-.29.7-.37"/>
      <path class="cls-4" d="M4.72,18.89c0-.6.03-1.22.08-1.87.06-.87.16-1.7.27-2.47"/>
      <path class="cls-4" d="M6.37,19.51c-.04-.94-.06-1.73-.06-2.32,0-1.16.03-1.63.1-2.11.2-1.28.53-1.72.73-1.94.26-.28.54-.45.74-.55"/>
      <path class="cls-4" d="M8.44,20.06c-.15-.25-.31-.58-.43-1-.19-.67-.18-1.25-.14-1.63"/>
      <path class="cls-4" d="M7.92,15.94c.1-.41.19-.83.29-1.24"/>
      <path class="cls-4" d="M10.07,19.85c-.23-.28-.48-.69-.65-1.21-.05-.16-.29-.93-.11-1.93.1-.55.29-.98.44-1.26"/>
      <path class="cls-4" d="M11.56,19.39c-.2-.17-.57-.52-.82-1.08-.24-.53-.27-1.01-.26-1.27"/>
      <path class="cls-4" d="M13,18.34c-.25-.12-.8-.43-1.2-1.07-.26-.43-.35-.84-.38-1.09"/>
      <path class="cls-4" d="M13.48,15.73c.06.17.14.35.26.55.22.35.45.61.62.77"/>
      <path class="cls-2" d="M7.01,10.72c.43-.11.87-.08,1.34-.04.19.01.77.07,1.49.33.35.13,1.05.39,1.74.99.81.7,1.16,1.47,1.51,2.24.26.56.23.99.4,1.48"/>
      <path class="cls-4" d="M5.34,13.03c.01-.26.08-.72.35-1.2.11-.2.33-.58.75-.86.18-.12.37-.2.56-.25"/>
      <path class="cls-2" d="M7.44,7.16c.45-.12,1.1-.24,1.9-.22.46.01,1.35.05,2.38.51,1.03.46,1.64,1.11,1.99,1.48.72.77,1.08,1.5,1.31,1.98.45.92.63,1.69.77,2.33.18.78.26,1.46.29,1.95"/>
      <path class="cls-2" d="M8.94,4.93c.48.09,1.16.23,1.96.43,1.48.37,2.22.55,2.91.93.93.51,1.54,1.13,2.12,1.73.48.5.84.86,1.19,1.47.5.86.69,1.68.83,2.3.12.53.18.97.22,1.28"/>
    </g>
  </g>
</svg>