<?xml version="1.0" encoding="UTF-8"?>
<svg id="Layer_2" data-name="Layer 2" xmlns="http://www.w3.org/2000/svg" viewBox="0 0 24.23 27.21">
  <defs>
    <style>
      .cls-1 {
        fill: #168a7c;
        stroke-width: 0px;
      }

      .cls-2 {
        fill: #fff;
        stroke: #168a7c;
        stroke-miterlimit: 10;
        stroke-width: .5px;
      }
    </style>
  </defs>
  <g id="Layer_1-2" data-name="Layer 1">
    <g>
      <path class="cls-1" d="M11.8,24.63S.88,18.72.88,11.71c0-4.25,3.33-6.37,6.07-6.45s4.86,2,4.86,2c0,0,2.12-2.07,4.86-2s6.07,2.19,6.07,6.45c0,7.01-10.92,12.92-10.92,12.92Z"/>
      <path class="cls-2" d="M3.21,3.93S1.14,2.81,1.14,1.48c0-.81.63-1.21,1.15-1.23s.92.38.92.38c0,0,.4-.39.92-.38s1.15.42,1.15,1.23c0,1.33-2.08,2.45-2.08,2.45Z"/>
      <path class="cls-2" d="M19.46,26.92s-2.08-1.12-2.08-2.45c0-.81.63-1.21,1.15-1.23s.92.38.92.38c0,0,.4-.39.92-.38s1.15.42,1.15,1.23c0,1.33-2.08,2.45-2.08,2.45Z"/>
      <path class="cls-2" d="M21.9,6.79s-2.08-1.12-2.08-2.45c0-.81.63-1.21,1.15-1.23s.92.38.92.38c0,0,.4-.39.92-.38s1.15.42,1.15,1.23c0,1.33-2.08,2.45-2.08,2.45Z"/>
      <path class="cls-2" d="M2.33,23.24s-2.08-1.12-2.08-2.45c0-.81.63-1.21,1.15-1.23s.92.38.92.38c0,0,.4-.39.92-.38s1.15.42,1.15,1.23c0,1.33-2.08,2.45-2.08,2.45Z"/>
    </g>
  </g>
</svg>