<?xml version="1.0" encoding="UTF-8"?>
<svg id="Layer_2" data-name="Layer 2" xmlns="http://www.w3.org/2000/svg" viewBox="0 0 19.75 29.54">
  <defs>
    <style>
      .cls-1 {
        fill: #fff;
      }

      .cls-1, .cls-2, .cls-3 {
        stroke: #168a7c;
        stroke-linecap: round;
        stroke-linejoin: round;
        stroke-width: .75px;
      }

      .cls-2 {
        fill: none;
      }

      .cls-3 {
        fill: #168a7c;
      }
    </style>
  </defs>
  <g id="Layer_1-2" data-name="Layer 1">
    <g>
      <path class="cls-3" d="M19.38,19.67c0,5.24-4.27,9.49-9.51,9.49S.38,24.92.38,19.67c0-.19,0-.39.03-.58.32-.24,2.45-1.85,5.95-1.85,1.23,0,3.93,1.54,3.93,1.54,0,0,2.01,1.18,3.73,1.18,2.63,0,5.19-2.02,5.19-2.02.11.56.17,1.13.17,1.73Z"/>
      <path class="cls-1" d="M19.21,17.95s-2.56,2.02-5.19,2.02c-1.72,0-3.73-1.18-3.73-1.18,0,0-2.7-1.54-3.93-1.54-3.5,0-5.63,1.61-5.95,1.85.19-3.32,2.06-6.17,4.79-7.71V.38h9.19v10.94c2.48,1.35,4.3,3.78,4.82,6.63Z"/>
      <line class="cls-2" x1="17.13" y1=".38" x2="14.39" y2=".38"/>
      <line class="cls-2" x1="5.2" y1=".38" x2="2.49" y2=".38"/>
      <path class="cls-2" d="M.41,19.1l-.04.04"/>
    </g>
  </g>
</svg>