<?xml version="1.0" encoding="UTF-8"?>
<svg id="Layer_2" data-name="Layer 2" xmlns="http://www.w3.org/2000/svg" viewBox="0 0 29.56 29.57">
  <defs>
    <style>
      .cls-1 {
        fill: #fff;
        stroke: #168a7c;
        stroke-linecap: round;
        stroke-linejoin: round;
        stroke-width: .75px;
      }
    </style>
  </defs>
  <g id="Layer_1-2" data-name="Layer 1">
    <g>
      <path class="cls-1" d="M28.89,11.84c-3.41,1.11-6.29,3.45-8.06,6.5l-5.95-3.63,7.3-12.29h.01c3.4,2.04,5.88,5.44,6.7,9.42Z"/>
      <path class="cls-1" d="M18.88,25.57c0,1.01.11,1.99.3,2.94-1.39.44-2.86.68-4.39.68-2.66,0-5.18-.73-7.31-1.99h-.01l7.41-12.49,5.95,3.63c-1.24,2.12-1.95,4.59-1.95,7.23Z"/>
      <path class="cls-1" d="M22.17,2.42l-7.3,12.29-5.84-3.57c1.19-2.11,1.87-4.52,1.87-7.1,0-1.04-.11-2.05-.33-3.03,1.33-.41,2.75-.64,4.21-.64,2.7,0,5.22.75,7.39,2.05Z"/>
      <path class="cls-1" d="M14.88,14.71l-7.41,12.49c-3.41-2.02-5.92-5.39-6.76-9.38,3.56-1.08,6.53-3.5,8.32-6.67,0,0,0-.01.01-.01l5.84,3.57Z"/>
      <path class="cls-1" d="M29.18,14.78c0,2.72-.76,5.25-2.05,7.42l-6.31-3.86c1.77-3.05,4.65-5.39,8.06-6.5.19.95.3,1.93.3,2.94Z"/>
      <path class="cls-1" d="M27.14,22.2c-1.79,2.97-4.6,5.24-7.96,6.31-.19-.95-.3-1.93-.3-2.94,0-2.64.71-5.11,1.95-7.23l6.31,3.86Z"/>
      <path class="cls-1" d="M10.91,4.04c0,2.58-.68,4.99-1.87,7.1l-6.48-3.96c1.82-2.93,4.65-5.16,8.02-6.17.22.98.33,1.99.33,3.03Z"/>
      <path class="cls-1" d="M9.04,11.14s-.01.01-.01.01c-1.79,3.17-4.76,5.59-8.32,6.67-.22-.98-.33-1.99-.33-3.04,0-2.8.79-5.41,2.18-7.6l6.48,3.96Z"/>
      <line class="cls-1" x1="2.56" y1="7.18" x2="2.55" y2="7.17"/>
    </g>
  </g>
</svg>